# File created by Blade
# Date/Time:  Fri Jan 16 19:32:17 2015
# Frame Rate: 120.000 fps
#------------------------------------------------------
:FULLY-SPECIFIED
:DEGREES
1028
root 19.706990 35.470555 -20.854240 11.127909 8.886688 -0.265973
Spine -24.051887 -4.258307 2.869307
Head 14.530557 50.037432 8.801053
LeftShoulder -11.619270 -29.885577 17.552274
LeftArm 10.245488 12.134329 -6.383182
LeftForeArm 20.612911 -0.000000 1.975850
LeftHand -5.979977 -0.000000 7.148282
LeftHandThumb1 -26.253704 0.000000 33.147579
RightShoulder -10.595638 -2.329543 -15.005570
RightArm -359.670017 44.320310 -350.161341
RightForeArm -36.808551 0.000000 3.063829
RightHand -4.789668 -0.000000 7.670584
RightHandThumb1 -24.326973 -0.000000 -32.862282
LeftUpLeg -3.259714 2.082382 0.926647
LeftLeg -6.608737 -0.000000 0.000000
LeftFoot -19.454806 27.907637 -11.614905
LeftToeBase 26.228595 -0.000000 -0.000000
RightUpLeg -1.406735 -15.014944 -0.740707
RightLeg -4.465347 -0.000000 0.000000
RightFoot -21.991516 -24.692071 18.472642
RightToeBase 24.803413 -0.000000 -0.000000
1029
root 19.702008 35.470461 -20.851825 11.122118 8.898758 -0.275622
Spine -24.075528 -4.271179 2.869609
Head 14.582397 50.150255 8.829549
LeftShoulder -11.631744 -29.899409 17.554752
LeftArm 10.273534 12.210941 -6.368874
LeftForeArm 20.607620 -0.000000 1.938601
LeftHand -5.917762 -0.000000 7.067826
LeftHandThumb1 -26.253704 0.000000 33.147579
RightShoulder -10.567583 -2.328568 -15.014540
RightArm -359.767301 44.323236 -350.230861
RightForeArm -36.776484 -0.000000 3.085300
RightHand -4.805251 -0.000000 7.666066
RightHandThumb1 -24.326973 -0.000000 -32.862282
LeftUpLeg -3.259423 2.081200 0.945777
LeftLeg -6.597007 -0.000000 0.000000
LeftFoot -19.469620 27.899354 -11.614054
LeftToeBase 26.227940 -0.000000 -0.000000
RightUpLeg -1.406478 -15.009948 -0.723726
RightLeg -4.446850 -0.000000 0.000000
RightFoot -22.024371 -24.730110 18.430162
RightToeBase 24.961347 -0.000000 -0.000000
1030
root 19.697585 35.470654 -20.848369 11.105718 8.913245 -0.278840
Spine -24.083316 -4.291628 2.861474
Head 14.620684 50.265578 8.846837
LeftShoulder -11.641852 -29.930198 17.551148
LeftArm 10.270233 12.254649 -6.347867
LeftForeArm 20.655654 -0.000000 1.954311
LeftHand -5.890097 -0.000000 7.012502
LeftHandThumb1 -26.253704 0.000000 33.147579
RightShoulder -10.555961 -2.318671 -15.027505
RightArm -359.821351 44.318741 -350.268831
RightForeArm -36.725862 -0.000000 3.083979
RightHand -4.819861 -0.000000 7.714622
RightHandThumb1 -24.326973 -0.000000 -32.862282
LeftUpLeg -3.236999 2.058413 0.959148
LeftLeg -6.606701 -0.000000 0.000000
LeftFoot -19.464808 27.911699 -11.635095
LeftToeBase 26.187541 -0.000000 -0.000000
RightUpLeg -1.387062 -15.014375 -0.717983
RightLeg -4.435150 -0.000000 0.000000
RightFoot -22.037685 -24.717548 18.460501
RightToeBase 24.945277 -0.000000 -0.000000
1031
root 19.692489 35.470501 -20.846256 11.101301 8.925872 -0.288370
Spine -24.111086 -4.304445 2.853160
Head 14.682372 50.337201 8.898154
LeftShoulder -11.644819 -29.989937 17.588090
LeftArm 10.246055 12.340094 -6.372906
LeftForeArm 20.661485 -0.000000 1.976987
LeftHand -5.820463 0.000000 6.815492
LeftHandThumb1 -26.253704 0.000000 33.147579
RightShoulder -10.538315 -2.325599 -15.041694
RightArm -359.873348 44.336046 -350.297519
RightForeArm -36.712529 0.000000 3.081658
RightHand -4.803108 -0.000000 7.723531
RightHandThumb1 -24.326973 -0.000000 -32.862282
LeftUpLeg -3.236084 2.067961 0.977309
LeftLeg -6.601804 -0.000000 0.000000
LeftFoot -19.464236 27.901966 -11.599906
LeftToeBase 26.221326 -0.000000 -0.000000
RightUpLeg -1.390289 -15.009980 -0.698861
RightLeg -4.416261 -0.000000 0.000000
RightFoot -22.052797 -24.737329 18.460987
RightToeBase 24.913844 -0.000000 -0.000000
1032
root 19.686816 35.470970 -20.845012 11.102281 8.928340 -0.298123
Spine -24.135797 -4.317391 2.844438
Head 14.716671 50.405513 8.921431
LeftShoulder -11.657101 -30.030615 17.598184
LeftArm 10.236750 12.346294 -6.363414
LeftForeArm 20.736322 0.000000 2.008215
LeftHand -5.878429 -0.000000 6.889068
LeftHandThumb1 -26.253704 0.000000 33.147579
RightShoulder -10.505618 -2.307803 -15.042344
RightArm -359.934612 44.292344 -350.354116
RightForeArm -36.671992 0.000000 3.057142
RightHand -4.762094 -0.000000 7.732374
RightHandThumb1 -24.326973 -0.000000 -32.862282
LeftUpLeg -3.242131 2.074166 0.995387
LeftLeg -6.593245 -0.000000 0.000000
LeftFoot -19.478091 27.889135 -11.621861
LeftToeBase 26.269013 -0.000000 -0.000000
RightUpLeg -1.398456 -14.995724 -0.678431
RightLeg -4.403473 -0.000000 0.000000
RightFoot -22.063004 -24.710905 18.525514
RightToeBase 24.792450 -0.000000 -0.000000
1033
root 19.682676 35.470939 -20.844148 11.098892 8.933189 -0.301874
Spine -24.148887 -4.334200 2.834871
Head 14.740046 50.461504 8.922861
LeftShoulder -11.684810 -30.051524 17.613935
LeftArm 10.252510 12.356379 -6.360213
LeftForeArm 20.790142 -0.000000 2.021025
LeftHand -5.883559 -0.000000 6.823381
LeftHandThumb1 -26.253704 0.000000 33.147579
RightShoulder -10.475260 -2.246884 -15.088429
RightArm -360.007266 44.232479 -350.371159
RightForeArm -36.681814 -0.000000 3.063151
RightHand -4.816079 0.000000 7.703702
RightHandThumb1 -24.326973 -0.000000 -32.862282
LeftUpLeg -3.245891 2.083862 1.004922
LeftLeg -6.582082 -0.000000 0.000000
LeftFoot -19.483050 27.876991 -11.614933
LeftToeBase 26.298591 -0.000000 -0.000000
RightUpLeg -1.408341 -15.005223 -0.668389
RightLeg -4.375873 -0.000000 0.000000
RightFoot -22.091520 -24.729776 18.482234
RightToeBase 24.926370 -0.000000 -0.000000
1034
root 19.677378 35.471457 -20.843563 11.098615 8.938128 -0.316140
Spine -24.170395 -4.344205 2.832808
Head 14.787843 50.509899 8.954539
LeftShoulder -11.688334 -30.109153 17.628952
LeftArm 10.238969 12.402860 -6.363285
LeftForeArm 20.904793 -0.000000 2.034597
LeftHand -5.894421 -0.000000 6.770593
LeftHandThumb1 -26.253704 0.000000 33.147579
RightShoulder -10.479602 -2.270034 -15.086264
RightArm -359.976666 44.243236 -350.370327
RightForeArm -36.622908 -0.000000 3.033085
RightHand -4.819001 -0.000000 7.714211
RightHandThumb1 -24.326973 -0.000000 -32.862282
LeftUpLeg -3.242560 2.069591 1.028215
LeftLeg -6.593955 -0.000000 0.000000
LeftFoot -19.476627 27.894798 -11.633438
LeftToeBase 26.211587 -0.000000 -0.000000
RightUpLeg -1.421248 -15.005651 -0.644271
RightLeg -4.353967 -0.000000 0.000000
RightFoot -22.088999 -24.690200 18.530875
RightToeBase 24.776336 -0.000000 -0.000000
1035
root 19.673281 35.472108 -20.843936 11.095171 8.925577 -0.332528
Spine -24.189357 -4.332979 2.840750
Head 14.845863 50.554923 8.964760
LeftShoulder -11.673941 -30.173406 17.619497
LeftArm 10.203488 12.444260 -6.350867
LeftForeArm 20.894243 -0.000000 2.089889
LeftHand -5.915585 -0.000000 6.656663
LeftHandThumb1 -26.253704 0.000000 33.147579
RightShoulder -10.463440 -2.262325 -15.115361
RightArm -359.992077 44.267483 -350.381592
RightForeArm -36.565055 -0.000000 3.050503
RightHand -4.883847 -0.000000 7.783263
RightHandThumb1 -24.326973 -0.000000 -32.862282
LeftUpLeg -3.243279 2.095793 1.047034
LeftLeg -6.589453 -0.000000 0.000000
LeftFoot -19.482631 27.882122 -11.633741
LeftToeBase 26.269496 -0.000000 -0.000000
RightUpLeg -1.441054 -14.969286 -0.624949
RightLeg -4.318599 -0.000000 0.000000
RightFoot -22.105633 -24.737658 18.502495
RightToeBase 24.896274 -0.000000 -0.000000
1036
root 19.668077 35.472376 -20.843839 11.091973 8.921408 -0.346428
Spine -24.199708 -4.332231 2.836660
Head 14.859495 50.593332 8.959748
LeftShoulder -11.678645 -30.205670 17.622382
LeftArm 10.198972 12.449644 -6.345208
LeftForeArm 20.945463 0.000000 2.120214
LeftHand -5.913107 -0.000000 6.586658
LeftHandThumb1 -26.253704 0.000000 33.147579
RightShoulder -10.440189 -2.231316 -15.138299
RightArm -360.031784 44.229161 -350.397233
RightForeArm -36.585284 -0.000000 3.046317
RightHand -4.887270 -0.000000 7.768257
RightHandThumb1 -24.326973 -0.000000 -32.862282
LeftUpLeg -3.241444 2.095572 1.067891
LeftLeg -6.592785 -0.000000 0.000000
LeftFoot -19.476098 27.896745 -11.613125
LeftToeBase 26.255946 -0.000000 -0.000000
RightUpLeg -1.453405 -14.960937 -0.603033
RightLeg -4.298088 -0.000000 0.000000
RightFoot -22.111207 -24.700066 18.544549
RightToeBase 24.804496 -0.000000 -0.000000
1037
root 19.662735 35.472469 -20.842725 11.077050 8.929466 -0.356941
Spine -24.200801 -4.350792 2.833214
Head 14.912944 50.654688 8.998976
LeftShoulder -11.677813 -30.222167 17.627971
LeftArm 10.178479 12.440591 -6.346501
LeftForeArm 20.995928 -0.000000 2.160127
LeftHand -5.902791 -0.000000 6.517004
LeftHandThumb1 -26.253704 0.000000 33.147579
RightShoulder -10.408717 -2.199468 -15.157752
RightArm -360.063441 44.222927 -350.420214
RightForeArm -36.506718 0.000000 3.063590
RightHand -4.947459 -0.000000 7.814703
RightHandThumb1 -24.326973 -0.000000 -32.862282
LeftUpLeg -3.223537 2.089959 1.087845
LeftLeg -6.602807 -0.000000 0.000000
LeftFoot -19.485293 27.897539 -11.633970
LeftToeBase 26.304667 -0.000000 -0.000000
RightUpLeg -1.443273 -14.970376 -0.585451
RightLeg -4.290712 -0.000000 0.000000
RightFoot -22.113701 -24.700042 18.534728
RightToeBase 24.811392 -0.000000 -0.000000
1038
root 19.657204 35.472265 -20.842826 11.072486 8.919866 -0.369334
Spine -24.205044 -4.351676 2.824053
Head 14.926890 50.703847 9.015865
LeftShoulder -11.681599 -30.261531 17.639496
LeftArm 10.188259 12.480619 -6.339474
LeftForeArm 21.056030 -0.000000 2.143616
LeftHand -5.902826 -0.000000 6.480480
LeftHandThumb1 -26.253704 0.000000 33.147579
RightShoulder -10.396781 -2.194291 -15.169585
RightArm -360.055006 44.266984 -350.416844
RightForeArm -36.473549 0.000000 3.048982
RightHand -4.904411 -0.000000 7.845626
RightHandThumb1 -24.326973 -0.000000 -32.862282
LeftUpLeg -3.218454 2.101942 1.107770
LeftLeg -6.606949 -0.000000 0.000000
LeftFoot -19.487398 27.889210 -11.637104
LeftToeBase 26.313163 -0.000000 -0.000000
RightUpLeg -1.453474 -14.953548 -0.567476
RightLeg -4.267370 -0.000000 0.000000
RightFoot -22.129755 -24.684246 18.571687
RightToeBase 24.780149 -0.000000 -0.000000
1039
root 19.651647 35.472698 -20.843291 11.068891 8.911684 -0.383968
Spine -24.211248 -4.350089 2.821462
Head 14.943023 50.739502 9.020303
LeftShoulder -11.667203 -30.286517 17.638585
LeftArm 10.165249 12.509949 -6.330213
LeftForeArm 21.056310 -0.000000 2.159939
LeftHand -5.908072 0.000000 6.445668
LeftHandThumb1 -26.253704 0.000000 33.147579
RightShoulder -10.378739 -2.147574 -15.200821
RightArm -360.063669 44.281556 -350.403770
RightForeArm -36.597341 0.000000 3.033000
RightHand -4.810587 -0.000000 7.785974
RightHandThumb1 -24.326973 -0.000000 -32.862282
LeftUpLeg -3.212066 2.094702 1.131625
LeftLeg -6.618004 -0.000000 0.000000
LeftFoot -19.481308 27.906428 -11.622827
LeftToeBase 26.281494 -0.000000 -0.000000
RightUpLeg -1.462219 -14.947604 -0.544608
RightLeg -4.255785 -0.000000 0.000000
RightFoot -22.134819 -24.676066 18.575032
RightToeBase 24.758178 -0.000000 -0.000000
